G04 #@! TF.GenerationSoftware,KiCad,Pcbnew,5.1.5*
G04 #@! TF.CreationDate,2019-12-29T20:10:12-05:00*
G04 #@! TF.ProjectId,cluster-luks-key,636c7573-7465-4722-9d6c-756b732d6b65,v01*
G04 #@! TF.SameCoordinates,Original*
G04 #@! TF.FileFunction,Soldermask,Bot*
G04 #@! TF.FilePolarity,Negative*
%FSLAX46Y46*%
G04 Gerber Fmt 4.6, Leading zero omitted, Abs format (unit mm)*
G04 Created by KiCad (PCBNEW 5.1.5) date 2019-12-29 20:10:12*
%MOMM*%
%LPD*%
G04 APERTURE LIST*
%ADD10C,0.100000*%
G04 APERTURE END LIST*
D10*
G36*
X152888513Y-105018928D02*
G01*
X153037813Y-105048625D01*
X153201785Y-105116545D01*
X153349355Y-105215148D01*
X153474854Y-105340647D01*
X153573457Y-105488217D01*
X153641377Y-105652189D01*
X153676001Y-105826260D01*
X153676001Y-106003742D01*
X153641377Y-106177813D01*
X153573457Y-106341785D01*
X153474854Y-106489355D01*
X153349355Y-106614854D01*
X153201785Y-106713457D01*
X153037813Y-106781377D01*
X152888513Y-106811074D01*
X152863743Y-106816001D01*
X152686259Y-106816001D01*
X152661489Y-106811074D01*
X152512189Y-106781377D01*
X152348217Y-106713457D01*
X152200647Y-106614854D01*
X152075148Y-106489355D01*
X151976545Y-106341785D01*
X151908625Y-106177813D01*
X151874001Y-106003742D01*
X151874001Y-105826260D01*
X151908625Y-105652189D01*
X151976545Y-105488217D01*
X152075148Y-105340647D01*
X152200647Y-105215148D01*
X152348217Y-105116545D01*
X152512189Y-105048625D01*
X152661489Y-105018928D01*
X152686259Y-105014001D01*
X152863743Y-105014001D01*
X152888513Y-105018928D01*
G37*
G36*
X155428513Y-105018928D02*
G01*
X155577813Y-105048625D01*
X155741785Y-105116545D01*
X155889355Y-105215148D01*
X156014854Y-105340647D01*
X156113457Y-105488217D01*
X156181377Y-105652189D01*
X156216001Y-105826260D01*
X156216001Y-106003742D01*
X156181377Y-106177813D01*
X156113457Y-106341785D01*
X156014854Y-106489355D01*
X155889355Y-106614854D01*
X155741785Y-106713457D01*
X155577813Y-106781377D01*
X155428513Y-106811074D01*
X155403743Y-106816001D01*
X155226259Y-106816001D01*
X155201489Y-106811074D01*
X155052189Y-106781377D01*
X154888217Y-106713457D01*
X154740647Y-106614854D01*
X154615148Y-106489355D01*
X154516545Y-106341785D01*
X154448625Y-106177813D01*
X154414001Y-106003742D01*
X154414001Y-105826260D01*
X154448625Y-105652189D01*
X154516545Y-105488217D01*
X154615148Y-105340647D01*
X154740647Y-105215148D01*
X154888217Y-105116545D01*
X155052189Y-105048625D01*
X155201489Y-105018928D01*
X155226259Y-105014001D01*
X155403743Y-105014001D01*
X155428513Y-105018928D01*
G37*
G36*
X152888513Y-102478928D02*
G01*
X153037813Y-102508625D01*
X153201785Y-102576545D01*
X153349355Y-102675148D01*
X153474854Y-102800647D01*
X153573457Y-102948217D01*
X153641377Y-103112189D01*
X153676001Y-103286260D01*
X153676001Y-103463742D01*
X153641377Y-103637813D01*
X153573457Y-103801785D01*
X153474854Y-103949355D01*
X153349355Y-104074854D01*
X153201785Y-104173457D01*
X153037813Y-104241377D01*
X152888513Y-104271074D01*
X152863743Y-104276001D01*
X152686259Y-104276001D01*
X152661489Y-104271074D01*
X152512189Y-104241377D01*
X152348217Y-104173457D01*
X152200647Y-104074854D01*
X152075148Y-103949355D01*
X151976545Y-103801785D01*
X151908625Y-103637813D01*
X151874001Y-103463742D01*
X151874001Y-103286260D01*
X151908625Y-103112189D01*
X151976545Y-102948217D01*
X152075148Y-102800647D01*
X152200647Y-102675148D01*
X152348217Y-102576545D01*
X152512189Y-102508625D01*
X152661489Y-102478928D01*
X152686259Y-102474001D01*
X152863743Y-102474001D01*
X152888513Y-102478928D01*
G37*
G36*
X155428513Y-102478928D02*
G01*
X155577813Y-102508625D01*
X155741785Y-102576545D01*
X155889355Y-102675148D01*
X156014854Y-102800647D01*
X156113457Y-102948217D01*
X156181377Y-103112189D01*
X156216001Y-103286260D01*
X156216001Y-103463742D01*
X156181377Y-103637813D01*
X156113457Y-103801785D01*
X156014854Y-103949355D01*
X155889355Y-104074854D01*
X155741785Y-104173457D01*
X155577813Y-104241377D01*
X155428513Y-104271074D01*
X155403743Y-104276001D01*
X155226259Y-104276001D01*
X155201489Y-104271074D01*
X155052189Y-104241377D01*
X154888217Y-104173457D01*
X154740647Y-104074854D01*
X154615148Y-103949355D01*
X154516545Y-103801785D01*
X154448625Y-103637813D01*
X154414001Y-103463742D01*
X154414001Y-103286260D01*
X154448625Y-103112189D01*
X154516545Y-102948217D01*
X154615148Y-102800647D01*
X154740647Y-102675148D01*
X154888217Y-102576545D01*
X155052189Y-102508625D01*
X155201489Y-102478928D01*
X155226259Y-102474001D01*
X155403743Y-102474001D01*
X155428513Y-102478928D01*
G37*
G36*
X155428513Y-99938928D02*
G01*
X155577813Y-99968625D01*
X155741785Y-100036545D01*
X155889355Y-100135148D01*
X156014854Y-100260647D01*
X156113457Y-100408217D01*
X156181377Y-100572189D01*
X156216001Y-100746260D01*
X156216001Y-100923742D01*
X156181377Y-101097813D01*
X156113457Y-101261785D01*
X156014854Y-101409355D01*
X155889355Y-101534854D01*
X155741785Y-101633457D01*
X155577813Y-101701377D01*
X155428513Y-101731074D01*
X155403743Y-101736001D01*
X155226259Y-101736001D01*
X155201489Y-101731074D01*
X155052189Y-101701377D01*
X154888217Y-101633457D01*
X154740647Y-101534854D01*
X154615148Y-101409355D01*
X154516545Y-101261785D01*
X154448625Y-101097813D01*
X154414001Y-100923742D01*
X154414001Y-100746260D01*
X154448625Y-100572189D01*
X154516545Y-100408217D01*
X154615148Y-100260647D01*
X154740647Y-100135148D01*
X154888217Y-100036545D01*
X155052189Y-99968625D01*
X155201489Y-99938928D01*
X155226259Y-99934001D01*
X155403743Y-99934001D01*
X155428513Y-99938928D01*
G37*
G36*
X152888513Y-99938928D02*
G01*
X153037813Y-99968625D01*
X153201785Y-100036545D01*
X153349355Y-100135148D01*
X153474854Y-100260647D01*
X153573457Y-100408217D01*
X153641377Y-100572189D01*
X153676001Y-100746260D01*
X153676001Y-100923742D01*
X153641377Y-101097813D01*
X153573457Y-101261785D01*
X153474854Y-101409355D01*
X153349355Y-101534854D01*
X153201785Y-101633457D01*
X153037813Y-101701377D01*
X152888513Y-101731074D01*
X152863743Y-101736001D01*
X152686259Y-101736001D01*
X152661489Y-101731074D01*
X152512189Y-101701377D01*
X152348217Y-101633457D01*
X152200647Y-101534854D01*
X152075148Y-101409355D01*
X151976545Y-101261785D01*
X151908625Y-101097813D01*
X151874001Y-100923742D01*
X151874001Y-100746260D01*
X151908625Y-100572189D01*
X151976545Y-100408217D01*
X152075148Y-100260647D01*
X152200647Y-100135148D01*
X152348217Y-100036545D01*
X152512189Y-99968625D01*
X152661489Y-99938928D01*
X152686259Y-99934001D01*
X152863743Y-99934001D01*
X152888513Y-99938928D01*
G37*
G36*
X155428513Y-97398928D02*
G01*
X155577813Y-97428625D01*
X155741785Y-97496545D01*
X155889355Y-97595148D01*
X156014854Y-97720647D01*
X156113457Y-97868217D01*
X156181377Y-98032189D01*
X156216001Y-98206260D01*
X156216001Y-98383742D01*
X156181377Y-98557813D01*
X156113457Y-98721785D01*
X156014854Y-98869355D01*
X155889355Y-98994854D01*
X155741785Y-99093457D01*
X155577813Y-99161377D01*
X155428513Y-99191074D01*
X155403743Y-99196001D01*
X155226259Y-99196001D01*
X155201489Y-99191074D01*
X155052189Y-99161377D01*
X154888217Y-99093457D01*
X154740647Y-98994854D01*
X154615148Y-98869355D01*
X154516545Y-98721785D01*
X154448625Y-98557813D01*
X154414001Y-98383742D01*
X154414001Y-98206260D01*
X154448625Y-98032189D01*
X154516545Y-97868217D01*
X154615148Y-97720647D01*
X154740647Y-97595148D01*
X154888217Y-97496545D01*
X155052189Y-97428625D01*
X155201489Y-97398928D01*
X155226259Y-97394001D01*
X155403743Y-97394001D01*
X155428513Y-97398928D01*
G37*
G36*
X152888513Y-97398928D02*
G01*
X153037813Y-97428625D01*
X153201785Y-97496545D01*
X153349355Y-97595148D01*
X153474854Y-97720647D01*
X153573457Y-97868217D01*
X153641377Y-98032189D01*
X153676001Y-98206260D01*
X153676001Y-98383742D01*
X153641377Y-98557813D01*
X153573457Y-98721785D01*
X153474854Y-98869355D01*
X153349355Y-98994854D01*
X153201785Y-99093457D01*
X153037813Y-99161377D01*
X152888513Y-99191074D01*
X152863743Y-99196001D01*
X152686259Y-99196001D01*
X152661489Y-99191074D01*
X152512189Y-99161377D01*
X152348217Y-99093457D01*
X152200647Y-98994854D01*
X152075148Y-98869355D01*
X151976545Y-98721785D01*
X151908625Y-98557813D01*
X151874001Y-98383742D01*
X151874001Y-98206260D01*
X151908625Y-98032189D01*
X151976545Y-97868217D01*
X152075148Y-97720647D01*
X152200647Y-97595148D01*
X152348217Y-97496545D01*
X152512189Y-97428625D01*
X152661489Y-97398928D01*
X152686259Y-97394001D01*
X152863743Y-97394001D01*
X152888513Y-97398928D01*
G37*
G36*
X152888513Y-94858928D02*
G01*
X153037813Y-94888625D01*
X153201785Y-94956545D01*
X153349355Y-95055148D01*
X153474854Y-95180647D01*
X153573457Y-95328217D01*
X153641377Y-95492189D01*
X153676001Y-95666260D01*
X153676001Y-95843742D01*
X153641377Y-96017813D01*
X153573457Y-96181785D01*
X153474854Y-96329355D01*
X153349355Y-96454854D01*
X153201785Y-96553457D01*
X153037813Y-96621377D01*
X152888513Y-96651074D01*
X152863743Y-96656001D01*
X152686259Y-96656001D01*
X152661489Y-96651074D01*
X152512189Y-96621377D01*
X152348217Y-96553457D01*
X152200647Y-96454854D01*
X152075148Y-96329355D01*
X151976545Y-96181785D01*
X151908625Y-96017813D01*
X151874001Y-95843742D01*
X151874001Y-95666260D01*
X151908625Y-95492189D01*
X151976545Y-95328217D01*
X152075148Y-95180647D01*
X152200647Y-95055148D01*
X152348217Y-94956545D01*
X152512189Y-94888625D01*
X152661489Y-94858928D01*
X152686259Y-94854001D01*
X152863743Y-94854001D01*
X152888513Y-94858928D01*
G37*
G36*
X156216001Y-96656001D02*
G01*
X154414001Y-96656001D01*
X154414001Y-94854001D01*
X156216001Y-94854001D01*
X156216001Y-96656001D01*
G37*
M02*
