G04 #@! TF.GenerationSoftware,KiCad,Pcbnew,5.1.5*
G04 #@! TF.CreationDate,2019-12-29T20:10:12-05:00*
G04 #@! TF.ProjectId,cluster-luks-key,636c7573-7465-4722-9d6c-756b732d6b65,v01*
G04 #@! TF.SameCoordinates,Original*
G04 #@! TF.FileFunction,Legend,Top*
G04 #@! TF.FilePolarity,Positive*
%FSLAX46Y46*%
G04 Gerber Fmt 4.6, Leading zero omitted, Abs format (unit mm)*
G04 Created by KiCad (PCBNEW 5.1.5) date 2019-12-29 20:10:12*
%MOMM*%
%LPD*%
G04 APERTURE LIST*
%ADD10C,0.120000*%
%ADD11C,0.150000*%
G04 APERTURE END LIST*
D10*
X166700000Y-103212779D02*
X166700000Y-102887221D01*
X167720000Y-103212779D02*
X167720000Y-102887221D01*
X165760000Y-103212779D02*
X165760000Y-102887221D01*
X164740000Y-103212779D02*
X164740000Y-102887221D01*
X166475000Y-97810000D02*
X166475000Y-100095000D01*
X166475000Y-100095000D02*
X167945000Y-100095000D01*
X167945000Y-100095000D02*
X167945000Y-97810000D01*
X142685001Y-94545001D02*
X151315001Y-94545001D01*
X142685001Y-94663096D02*
X151315001Y-94663096D01*
X142685001Y-94781191D02*
X151315001Y-94781191D01*
X142685001Y-94899286D02*
X151315001Y-94899286D01*
X142685001Y-95017381D02*
X151315001Y-95017381D01*
X142685001Y-95135476D02*
X151315001Y-95135476D01*
X142685001Y-95253571D02*
X151315001Y-95253571D01*
X142685001Y-95371666D02*
X151315001Y-95371666D01*
X142685001Y-95489761D02*
X151315001Y-95489761D01*
X142685001Y-95607856D02*
X151315001Y-95607856D01*
X142685001Y-95725951D02*
X151315001Y-95725951D01*
X142685001Y-95844046D02*
X151315001Y-95844046D01*
X142685001Y-95962141D02*
X151315001Y-95962141D01*
X142685001Y-96080236D02*
X151315001Y-96080236D01*
X142685001Y-96198331D02*
X151315001Y-96198331D01*
X142685001Y-96316426D02*
X151315001Y-96316426D01*
X142685001Y-96434521D02*
X151315001Y-96434521D01*
X142685001Y-96552616D02*
X151315001Y-96552616D01*
X142685001Y-96670711D02*
X151315001Y-96670711D01*
X142685001Y-96788806D02*
X151315001Y-96788806D01*
X142685001Y-96906901D02*
X151315001Y-96906901D01*
X151315001Y-95395001D02*
X151725001Y-95395001D01*
X153825001Y-95395001D02*
X154205001Y-95395001D01*
X151315001Y-96115001D02*
X151725001Y-96115001D01*
X153825001Y-96115001D02*
X154205001Y-96115001D01*
X151315001Y-97935001D02*
X151725001Y-97935001D01*
X153825001Y-97935001D02*
X154265001Y-97935001D01*
X151315001Y-98655001D02*
X151725001Y-98655001D01*
X153825001Y-98655001D02*
X154265001Y-98655001D01*
X151315001Y-100475001D02*
X151725001Y-100475001D01*
X153825001Y-100475001D02*
X154265001Y-100475001D01*
X151315001Y-101195001D02*
X151725001Y-101195001D01*
X153825001Y-101195001D02*
X154265001Y-101195001D01*
X151315001Y-103015001D02*
X151725001Y-103015001D01*
X153825001Y-103015001D02*
X154265001Y-103015001D01*
X151315001Y-103735001D02*
X151725001Y-103735001D01*
X153825001Y-103735001D02*
X154265001Y-103735001D01*
X151315001Y-105555001D02*
X151725001Y-105555001D01*
X153825001Y-105555001D02*
X154265001Y-105555001D01*
X151315001Y-106275001D02*
X151725001Y-106275001D01*
X153825001Y-106275001D02*
X154265001Y-106275001D01*
X142685001Y-97025001D02*
X151315001Y-97025001D01*
X142685001Y-99565001D02*
X151315001Y-99565001D01*
X142685001Y-102105001D02*
X151315001Y-102105001D01*
X142685001Y-104645001D02*
X151315001Y-104645001D01*
X142685001Y-94425001D02*
X151315001Y-94425001D01*
X151315001Y-94425001D02*
X151315001Y-107245001D01*
X142685001Y-107245001D02*
X151315001Y-107245001D01*
X142685001Y-94425001D02*
X142685001Y-107245001D01*
X156425001Y-94425001D02*
X156425001Y-95755001D01*
X155315001Y-94425001D02*
X156425001Y-94425001D01*
X165760000Y-98447221D02*
X165760000Y-98772779D01*
X164740000Y-98447221D02*
X164740000Y-98772779D01*
X163380000Y-100830000D02*
X163380000Y-98880000D01*
X163380000Y-100830000D02*
X163380000Y-102780000D01*
X158260000Y-100830000D02*
X158260000Y-98880000D01*
X158260000Y-100830000D02*
X158260000Y-104280000D01*
D11*
X156872380Y-101591904D02*
X157681904Y-101591904D01*
X157777142Y-101544285D01*
X157824761Y-101496666D01*
X157872380Y-101401428D01*
X157872380Y-101210952D01*
X157824761Y-101115714D01*
X157777142Y-101068095D01*
X157681904Y-101020476D01*
X156872380Y-101020476D01*
X157872380Y-100020476D02*
X157872380Y-100591904D01*
X157872380Y-100306190D02*
X156872380Y-100306190D01*
X157015238Y-100401428D01*
X157110476Y-100496666D01*
X157158095Y-100591904D01*
M02*
