G04 #@! TF.GenerationSoftware,KiCad,Pcbnew,5.1.5*
G04 #@! TF.CreationDate,2019-12-29T20:10:12-05:00*
G04 #@! TF.ProjectId,cluster-luks-key,636c7573-7465-4722-9d6c-756b732d6b65,v01*
G04 #@! TF.SameCoordinates,Original*
G04 #@! TF.FileFunction,Copper,L2,Bot*
G04 #@! TF.FilePolarity,Positive*
%FSLAX46Y46*%
G04 Gerber Fmt 4.6, Leading zero omitted, Abs format (unit mm)*
G04 Created by KiCad (PCBNEW 5.1.5) date 2019-12-29 20:10:12*
%MOMM*%
%LPD*%
G04 APERTURE LIST*
%ADD10R,1.700000X1.700000*%
%ADD11O,1.700000X1.700000*%
%ADD12C,0.800000*%
%ADD13C,0.250000*%
%ADD14C,0.254000*%
G04 APERTURE END LIST*
D10*
X155315001Y-95755001D03*
D11*
X152775001Y-95755001D03*
X155315001Y-98295001D03*
X152775001Y-98295001D03*
X155315001Y-100835001D03*
X152775001Y-100835001D03*
X155315001Y-103375001D03*
X152775001Y-103375001D03*
X155315001Y-105915001D03*
X152775001Y-105915001D03*
D12*
X160000000Y-106000000D03*
X167000000Y-101000000D03*
X162000000Y-96000000D03*
X160140000Y-100720000D03*
D13*
X156200000Y-102200000D02*
X159600001Y-105600001D01*
X159600001Y-105600001D02*
X160000000Y-106000000D01*
X154140000Y-102200000D02*
X156200000Y-102200000D01*
X152775001Y-100835001D02*
X154140000Y-102200000D01*
X155315001Y-95895001D02*
X155315001Y-95755001D01*
X160140000Y-100720000D02*
X155315001Y-95895001D01*
D14*
G36*
X151621526Y-94808369D02*
G01*
X151459011Y-95051590D01*
X151347069Y-95321843D01*
X151290001Y-95608741D01*
X151290001Y-95901261D01*
X151347069Y-96188159D01*
X151459011Y-96458412D01*
X151621526Y-96701633D01*
X151828369Y-96908476D01*
X152002761Y-97025001D01*
X151828369Y-97141526D01*
X151621526Y-97348369D01*
X151459011Y-97591590D01*
X151347069Y-97861843D01*
X151290001Y-98148741D01*
X151290001Y-98441261D01*
X151347069Y-98728159D01*
X151459011Y-98998412D01*
X151621526Y-99241633D01*
X151828369Y-99448476D01*
X152071590Y-99610991D01*
X152341843Y-99722933D01*
X152628741Y-99780001D01*
X152921261Y-99780001D01*
X153208159Y-99722933D01*
X153478412Y-99610991D01*
X153721633Y-99448476D01*
X153928476Y-99241633D01*
X154045001Y-99067241D01*
X154161526Y-99241633D01*
X154368369Y-99448476D01*
X154542761Y-99565001D01*
X154368369Y-99681526D01*
X154161526Y-99888369D01*
X153999011Y-100131590D01*
X153887069Y-100401843D01*
X153830001Y-100688741D01*
X153830001Y-100981261D01*
X153887069Y-101268159D01*
X153999011Y-101538412D01*
X154161526Y-101781633D01*
X154368369Y-101988476D01*
X154542761Y-102105001D01*
X154368369Y-102221526D01*
X154161526Y-102428369D01*
X154045001Y-102602761D01*
X153928476Y-102428369D01*
X153721633Y-102221526D01*
X153478412Y-102059011D01*
X153208159Y-101947069D01*
X152921261Y-101890001D01*
X152628741Y-101890001D01*
X152341843Y-101947069D01*
X152071590Y-102059011D01*
X151828369Y-102221526D01*
X151621526Y-102428369D01*
X151459011Y-102671590D01*
X151347069Y-102941843D01*
X151290001Y-103228741D01*
X151290001Y-103521261D01*
X151347069Y-103808159D01*
X151459011Y-104078412D01*
X151621526Y-104321633D01*
X151828369Y-104528476D01*
X152002761Y-104645001D01*
X151828369Y-104761526D01*
X151621526Y-104968369D01*
X151459011Y-105211590D01*
X151347069Y-105481843D01*
X151290001Y-105768741D01*
X151290001Y-106061261D01*
X151347069Y-106348159D01*
X151459011Y-106618412D01*
X151621526Y-106861633D01*
X151792987Y-107033094D01*
X143430000Y-107039496D01*
X143430000Y-94660000D01*
X151769895Y-94660000D01*
X151621526Y-94808369D01*
G37*
X151621526Y-94808369D02*
X151459011Y-95051590D01*
X151347069Y-95321843D01*
X151290001Y-95608741D01*
X151290001Y-95901261D01*
X151347069Y-96188159D01*
X151459011Y-96458412D01*
X151621526Y-96701633D01*
X151828369Y-96908476D01*
X152002761Y-97025001D01*
X151828369Y-97141526D01*
X151621526Y-97348369D01*
X151459011Y-97591590D01*
X151347069Y-97861843D01*
X151290001Y-98148741D01*
X151290001Y-98441261D01*
X151347069Y-98728159D01*
X151459011Y-98998412D01*
X151621526Y-99241633D01*
X151828369Y-99448476D01*
X152071590Y-99610991D01*
X152341843Y-99722933D01*
X152628741Y-99780001D01*
X152921261Y-99780001D01*
X153208159Y-99722933D01*
X153478412Y-99610991D01*
X153721633Y-99448476D01*
X153928476Y-99241633D01*
X154045001Y-99067241D01*
X154161526Y-99241633D01*
X154368369Y-99448476D01*
X154542761Y-99565001D01*
X154368369Y-99681526D01*
X154161526Y-99888369D01*
X153999011Y-100131590D01*
X153887069Y-100401843D01*
X153830001Y-100688741D01*
X153830001Y-100981261D01*
X153887069Y-101268159D01*
X153999011Y-101538412D01*
X154161526Y-101781633D01*
X154368369Y-101988476D01*
X154542761Y-102105001D01*
X154368369Y-102221526D01*
X154161526Y-102428369D01*
X154045001Y-102602761D01*
X153928476Y-102428369D01*
X153721633Y-102221526D01*
X153478412Y-102059011D01*
X153208159Y-101947069D01*
X152921261Y-101890001D01*
X152628741Y-101890001D01*
X152341843Y-101947069D01*
X152071590Y-102059011D01*
X151828369Y-102221526D01*
X151621526Y-102428369D01*
X151459011Y-102671590D01*
X151347069Y-102941843D01*
X151290001Y-103228741D01*
X151290001Y-103521261D01*
X151347069Y-103808159D01*
X151459011Y-104078412D01*
X151621526Y-104321633D01*
X151828369Y-104528476D01*
X152002761Y-104645001D01*
X151828369Y-104761526D01*
X151621526Y-104968369D01*
X151459011Y-105211590D01*
X151347069Y-105481843D01*
X151290001Y-105768741D01*
X151290001Y-106061261D01*
X151347069Y-106348159D01*
X151459011Y-106618412D01*
X151621526Y-106861633D01*
X151792987Y-107033094D01*
X143430000Y-107039496D01*
X143430000Y-94660000D01*
X151769895Y-94660000D01*
X151621526Y-94808369D01*
G36*
X168240000Y-107020506D02*
G01*
X156300465Y-107029644D01*
X156468476Y-106861633D01*
X156630991Y-106618412D01*
X156742933Y-106348159D01*
X156800001Y-106061261D01*
X156800001Y-105768741D01*
X156742933Y-105481843D01*
X156630991Y-105211590D01*
X156468476Y-104968369D01*
X156261633Y-104761526D01*
X156087241Y-104645001D01*
X156261633Y-104528476D01*
X156468476Y-104321633D01*
X156630991Y-104078412D01*
X156742933Y-103808159D01*
X156800001Y-103521261D01*
X156800001Y-103228741D01*
X156742933Y-102941843D01*
X156630991Y-102671590D01*
X156468476Y-102428369D01*
X156261633Y-102221526D01*
X156087241Y-102105001D01*
X156261633Y-101988476D01*
X156468476Y-101781633D01*
X156630991Y-101538412D01*
X156742933Y-101268159D01*
X156800001Y-100981261D01*
X156800001Y-100688741D01*
X156742933Y-100401843D01*
X156630991Y-100131590D01*
X156468476Y-99888369D01*
X156261633Y-99681526D01*
X156087241Y-99565001D01*
X156261633Y-99448476D01*
X156468476Y-99241633D01*
X156630991Y-98998412D01*
X156742933Y-98728159D01*
X156797754Y-98452556D01*
X159105000Y-100759802D01*
X159105000Y-100821939D01*
X159144774Y-101021898D01*
X159222795Y-101210256D01*
X159336063Y-101379774D01*
X159480226Y-101523937D01*
X159649744Y-101637205D01*
X159838102Y-101715226D01*
X160038061Y-101755000D01*
X160241939Y-101755000D01*
X160441898Y-101715226D01*
X160630256Y-101637205D01*
X160799774Y-101523937D01*
X160943937Y-101379774D01*
X161057205Y-101210256D01*
X161135226Y-101021898D01*
X161175000Y-100821939D01*
X161175000Y-100618061D01*
X161135226Y-100418102D01*
X161057205Y-100229744D01*
X160943937Y-100060226D01*
X160799774Y-99916063D01*
X160630256Y-99802795D01*
X160441898Y-99724774D01*
X160241939Y-99685000D01*
X160179802Y-99685000D01*
X156803073Y-96308272D01*
X156803073Y-94905001D01*
X156790813Y-94780519D01*
X156754503Y-94660821D01*
X156754064Y-94660000D01*
X168240001Y-94660000D01*
X168240000Y-107020506D01*
G37*
X168240000Y-107020506D02*
X156300465Y-107029644D01*
X156468476Y-106861633D01*
X156630991Y-106618412D01*
X156742933Y-106348159D01*
X156800001Y-106061261D01*
X156800001Y-105768741D01*
X156742933Y-105481843D01*
X156630991Y-105211590D01*
X156468476Y-104968369D01*
X156261633Y-104761526D01*
X156087241Y-104645001D01*
X156261633Y-104528476D01*
X156468476Y-104321633D01*
X156630991Y-104078412D01*
X156742933Y-103808159D01*
X156800001Y-103521261D01*
X156800001Y-103228741D01*
X156742933Y-102941843D01*
X156630991Y-102671590D01*
X156468476Y-102428369D01*
X156261633Y-102221526D01*
X156087241Y-102105001D01*
X156261633Y-101988476D01*
X156468476Y-101781633D01*
X156630991Y-101538412D01*
X156742933Y-101268159D01*
X156800001Y-100981261D01*
X156800001Y-100688741D01*
X156742933Y-100401843D01*
X156630991Y-100131590D01*
X156468476Y-99888369D01*
X156261633Y-99681526D01*
X156087241Y-99565001D01*
X156261633Y-99448476D01*
X156468476Y-99241633D01*
X156630991Y-98998412D01*
X156742933Y-98728159D01*
X156797754Y-98452556D01*
X159105000Y-100759802D01*
X159105000Y-100821939D01*
X159144774Y-101021898D01*
X159222795Y-101210256D01*
X159336063Y-101379774D01*
X159480226Y-101523937D01*
X159649744Y-101637205D01*
X159838102Y-101715226D01*
X160038061Y-101755000D01*
X160241939Y-101755000D01*
X160441898Y-101715226D01*
X160630256Y-101637205D01*
X160799774Y-101523937D01*
X160943937Y-101379774D01*
X161057205Y-101210256D01*
X161135226Y-101021898D01*
X161175000Y-100821939D01*
X161175000Y-100618061D01*
X161135226Y-100418102D01*
X161057205Y-100229744D01*
X160943937Y-100060226D01*
X160799774Y-99916063D01*
X160630256Y-99802795D01*
X160441898Y-99724774D01*
X160241939Y-99685000D01*
X160179802Y-99685000D01*
X156803073Y-96308272D01*
X156803073Y-94905001D01*
X156790813Y-94780519D01*
X156754503Y-94660821D01*
X156754064Y-94660000D01*
X168240001Y-94660000D01*
X168240000Y-107020506D01*
M02*
